<svg xmlns="http://www.w3.org/2000/svg" xmlns:xlink="http://www.w3.org/1999/xlink" xmlns:lucid="lucid" width="1240"
     height="420">
    <g transform="translate(-220 -300)" lucid:page-tab-id="0_0">
        <path d="M0 0h1760v1360H0z" fill="#fff"/>
        <path d="M402.5 380H520M402.53 380h-1.03" stroke="#5e5e5e" stroke-width="2" fill="none"/>
        <path d="M535.26 380L521 384.64v-9.28z" stroke="#5e5e5e" stroke-width="2" fill="#5e5e5e"/>
        <path d="M700 340c22.1 0 40 17.9 40 40s-17.9 40-40 40H580c-22.1 0-40-17.9-40-40s17.9-40 40-40z" stroke="#5e5e5e"
              stroke-width="3" fill="#fff"/>
        <use xlink:href="#a" transform="matrix(1,0,0,1,545,345) translate(38.42592592592593 39.65277777777778)"/>
        <path d="M340 346c0-3.3 2.7-6 6-6h228c3.3 0 6 2.7 6 6v48c0 3.3-2.7 6-6 6H346c-3.3 0-6-2.7-6-6z" stroke="#000"
              stroke-opacity="0" stroke-width="3" fill="#fff" fill-opacity="0"/>
        <use xlink:href="#b" transform="matrix(1,0,0,1,345,345) translate(68.51851851851852 30.27777777777778)"/>
        <path d="M742.5 380H860" stroke="#5e5e5e" stroke-width="2" fill="none"/>
        <path d="M742.53 381h-1.1l.07-.98-.03-1.02h1.06" fill="#5e5e5e"/>
        <path d="M875.26 380L861 384.64v-9.28z" stroke="#5e5e5e" stroke-width="2" fill="#5e5e5e"/>
        <path d="M1024 340c19.88 0 36 17.9 36 40s-16.12 40-36 40H916c-19.88 0-36-17.9-36-40s16.12-40 36-40z"
              stroke="#5e5e5e" stroke-width="3" fill="#fff"/>
        <use xlink:href="#c" transform="matrix(1,0,0,1,885,345) translate(48.05555555555555 39.65277777777778)"/>
        <path d="M680 346c0-3.3 2.7-6 6-6h228c3.3 0 6 2.7 6 6v48c0 3.3-2.7 6-6 6H686c-3.3 0-6-2.7-6-6z" stroke="#000"
              stroke-opacity="0" stroke-width="3" fill="#fff" fill-opacity="0"/>
        <use xlink:href="#d" transform="matrix(1,0,0,1,685,345) translate(57.12962962962963 30.27777777777778)"/>
        <path d="M970 422.5V580" stroke="#5e5e5e" stroke-width="2" fill="none"/>
        <path d="M971 422.53h-2v-1.03h2" fill="#5e5e5e"/>
        <path d="M970 595.26L965.36 581h9.28z" stroke="#5e5e5e" stroke-width="2" fill="#5e5e5e"/>
        <path d="M1014 380c3.3 0 6 2.7 6 6v228c0 3.3-2.7 6-6 6h-48c-3.3 0-6-2.7-6-6V386c0-3.3 2.7-6 6-6z" stroke="#000"
              stroke-opacity="0" stroke-width="3" fill="#fff" fill-opacity="0"/>
        <use xlink:href="#e"
             transform="matrix(6.123233995736766e-17,1,-1,6.123233995736766e-17,1015,384.99999999999994) translate(60.77160493827161 30.27777777777778)"/>
        <path d="M1024 600c19.88 0 36 17.9 36 40s-16.12 40-36 40H916c-19.88 0-36-17.9-36-40s16.12-40 36-40z"
              stroke="#5e5e5e" stroke-width="3" fill="#fff"/>
        <use xlink:href="#f" transform="matrix(1,0,0,1,885,605) translate(45.55555555555555 39.65277777777778)"/>
        <path d="M702 600c21 0 38 17.9 38 40s-17 40-38 40H588c-21 0-38-17.9-38-40s17-40 38-40z" stroke="#5e5e5e"
              stroke-width="3" fill="#fff"/>
        <use xlink:href="#g" transform="matrix(1,0,0,1,555,605) translate(9.351851851851862 39.65277777777778)"/>
        <path d="M700 586c0-3.3 2.7-6 6-6h228c3.3 0 6 2.7 6 6v48c0 3.3-2.7 6-6 6H706c-3.3 0-6-2.7-6-6z" stroke="#000"
              stroke-opacity="0" stroke-width="3" fill="#fff" fill-opacity="0"/>
        <use xlink:href="#h" transform="matrix(1,0,0,1,705,585) translate(63.333333333333336 30.27777777777778)"/>
        <path d="M553.3 618.46h-77.84s-.02 0-.02-.02 0-.03-.02-.03H415.1" stroke="#5e5e5e" stroke-width="2"
              fill="none"/>
        <path d="M553.72 619.37l-.05.1h-.4v-2h1.65" fill="#5e5e5e"/>
        <path d="M399.83 618.4l14.27-4.62v9.27z" stroke="#5e5e5e" stroke-width="2" fill="#5e5e5e"/>
        <path d="M398.8 658.9h76.5v-.03l.03-.02h59M398.83 658.9h-1.03" stroke="#5e5e5e" stroke-width="2" fill="none"/>
        <path d="M549.58 658.85l-14.26 4.64v-9.28z" stroke="#5e5e5e" stroke-width="2" fill="#5e5e5e"/>
        <path d="M360 586c0-3.3 2.7-6 6-6h228c3.3 0 6 2.7 6 6v48c0 3.3-2.7 6-6 6H366c-3.3 0-6-2.7-6-6z" stroke="#000"
              stroke-opacity="0" stroke-width="3" fill="#fff" fill-opacity="0"/>
        <use xlink:href="#i" transform="matrix(1,0,0,1,365,585) translate(79.25925925925927 30.27777777777778)"/>
        <path d="M360 646c0-3.3 2.7-6 6-6h228c3.3 0 6 2.7 6 6v48c0 3.3-2.7 6-6 6H366c-3.3 0-6-2.7-6-6z" stroke="#000"
              stroke-opacity="0" stroke-width="3" fill="#fff" fill-opacity="0"/>
        <use xlink:href="#j" transform="matrix(1,0,0,1,365,645) translate(72.46913580246914 30.27777777777778)"/>
        <path d="M881.94 620.57H755.36" stroke="#5e5e5e" stroke-width="2" fill="none"/>
        <path d="M882.48 621.57h-.56v-2h1.5" fill="#5e5e5e"/>
        <path d="M740.1 620.57l14.26-4.63v9.27z" stroke="#5e5e5e" stroke-width="2" fill="#5e5e5e"/>
        <path d="M738.45 658.13h71.43s.02 0 .02.02v.02h53.94" stroke="#5e5e5e" stroke-width="2" fill="none"/>
        <path d="M738.48 659.13h-1.5l.94-2h.56" fill="#5e5e5e"/>
        <path d="M879.1 658.17l-14.26 4.63v-9.27z" stroke="#5e5e5e" stroke-width="2" fill="#5e5e5e"/>
        <path d="M695 646c0-3.3 2.7-6 6-6h228c3.3 0 6 2.7 6 6v48c0 3.3-2.7 6-6 6H701c-3.3 0-6-2.7-6-6z" stroke="#000"
              stroke-opacity="0" stroke-width="3" fill="#fff" fill-opacity="0"/>
        <use xlink:href="#k" transform="matrix(1,0,0,1,700,645) translate(73.70370370370371 30.27777777777778)"/>
        <path d="M1040 606c0-3.3 2.7-6 6-6h228c3.3 0 6 2.7 6 6v48c0 3.3-2.7 6-6 6h-228c-3.3 0-6-2.7-6-6z" stroke="#000"
              stroke-opacity="0" stroke-width="3" fill="#fff" fill-opacity="0"/>
        <use xlink:href="#l" transform="matrix(1,0,0,1,1045,605) translate(23.85802469135804 30.27777777777778)"/>
        <use xlink:href="#m" transform="matrix(1,0,0,1,1045,605) translate(142.56172839506172 30.27777777777778)"/>
        <use xlink:href="#n" transform="matrix(1,0,0,1,1045,605) translate(165.4012345679012 30.27777777777778)"/>
        <path d="M1030 626c0-3.3 2.7-6 6-6h228c3.3 0 6 2.7 6 6v48c0 3.3-2.7 6-6 6h-228c-3.3 0-6-2.7-6-6z" stroke="#000"
              stroke-opacity="0" stroke-width="3" fill="#fff" fill-opacity="0"/>
        <use xlink:href="#o" transform="matrix(1,0,0,1,1035,625) translate(81.14197530864197 30.27777777777778)"/>
        <path d="M1408 600c17.67 0 32 17.9 32 40s-14.33 40-32 40h-96c-17.67 0-32-17.9-32-40s14.33-40 32-40z"
              stroke="#5e5e5e" stroke-width="3" fill="#fff"/>
        <use xlink:href="#p" transform="matrix(1,0,0,1,1285,605) translate(26.975308641975303 39.65277777777778)"/>
        <path d="M1062.5 640H1260" stroke="#5e5e5e" stroke-width="2" fill="none"/>
        <path d="M1062.53 641h-1.1l.07-.98-.03-1.02h1.06" fill="#5e5e5e"/>
        <path d="M1275.26 640l-14.26 4.64v-9.28z" stroke="#5e5e5e" stroke-width="2" fill="#5e5e5e"/>
        <path d="M264 404c-13.25 0-24-10.75-24-24 0-10.6 6.5-19.55 16.58-22.83C256 326 296 320 312 332c8-18 48-12 48 6 24-6 48 18 32 48 16 24 0 54-32 42-8 15.6-40 15.6-48 0-16 12-48 6-48-24z"
              stroke="#5e5e5e" stroke-width="3" fill="#fff"/>
        <use xlink:href="#q" transform="matrix(1,0,0,1,245,325) translate(17.820987654320987 59.02777777777778)"/>
        <use xlink:href="#r" transform="matrix(1,0,0,1,245,325) translate(65.16666666666666 59.02777777777778)"/>
        <path d="M264 654c-13.25 0-24-10.75-24-24 0-10.6 6.5-19.55 16.58-22.83C256 576 296 570 312 582c8-18 48-12 48 6 24-6 48 18 32 48 16 24 0 54-32 42-8 15.6-40 15.6-48 0-16 12-48 6-48-24z"
              stroke="#5e5e5e" stroke-width="3" fill="#fff"/>
        <g>
            <use xlink:href="#s" transform="matrix(1,0,0,1,245,575) translate(32.65932098765432 45.27777777777778)"/>
            <use xlink:href="#t" transform="matrix(1,0,0,1,245,575) translate(52.23339506172839 71.94444444444446)"/>
        </g>
        <defs>
            <path fill="#333"
                  d="M75-17c87 13 134-18 134-103 0-78-51-106-134-100v203zm171-102C246 5 139 7 10 0v-9l31-5v-208l-31-4v-10h107c82 0 129 35 129 117"
                  id="u"/>
            <path fill="#333"
                  d="M32-163c41-10 102-14 102 39v112c8 3 24-2 21 12h-45l-4-17C83 13 3 13 13-46c-2-50 45-50 92-51 4-36-5-70-42-56-6 2-12 4-16 6-4 7 0 23-15 20v-36zM42-47c0 41 41 33 63 22v-59c-34 1-63-1-63 37"
                  id="v"/>
            <path fill="#333"
                  d="M54-38c-1 25 24 26 44 20v12C71 10 25 9 25-35v-115H4c-2-14 14-10 21-15l18-38h11v38h38v15H54v112"
                  id="w"/>
            <path fill="#333"
                  d="M10 0v-9l31-5v-208l-31-4v-10h95v10l-30 4v93h110v-93l-30-4v-10h94v10l-30 4v208l30 5v9h-94v-9l30-5v-99H75v99l30 5v9H10"
                  id="x"/>
            <path fill="#333"
                  d="M125-118c4-37-41-34-68-26v132l23 4v8H8C5-13 21-9 28-12v-141c-7-3-23 1-20-12h47l2 13c31-23 98-29 98 31v109c7 3 23-1 20 12h-72v-8l22-4v-106"
                  id="y"/>
            <path fill="#333"
                  d="M13-81c0-71 46-101 114-85l-1-72-28-4v-8h57v238c8 3 24-2 21 12h-47l-2-12C80 23 13-1 13-81zm77-74c-37 1-44 33-45 74 0 38 9 66 45 66 14 0 27-3 36-7v-130c-10-1-24-3-36-3"
                  id="z"/>
            <path fill="#333" d="M65-12l28 4v8H7v-8l28-4v-226l-28-4v-8h58v238" id="A"/>
            <path fill="#333"
                  d="M84-170c49 0 66 33 63 87H46c-8 60 38 80 95 63v10C128-2 108 4 88 4 34 4 14-29 14-84c-1-54 22-86 70-86zm33 73c12-57-57-82-69-24-1 7-2 15-2 24h71"
                  id="B"/>
            <path fill="#333"
                  d="M57-145c16-10 35-24 60-25v45c-19 1-8-30-40-17l-20 6v124l29 4v8H7v-8l21-4v-141c-8-3-24 2-21-12h48"
                  id="C"/>
            <g id="a">
                <use transform="matrix(0.06172839506172839,0,0,0.06172839506172839,0,0)" xlink:href="#u"/>
                <use transform="matrix(0.06172839506172839,0,0,0.06172839506172839,15.987654320987653,0)"
                     xlink:href="#v"/>
                <use transform="matrix(0.06172839506172839,0,0,0.06172839506172839,25.80246913580247,0)"
                     xlink:href="#w"/>
                <use transform="matrix(0.06172839506172839,0,0,0.06172839506172839,31.975308641975307,0)"
                     xlink:href="#v"/>
                <use transform="matrix(0.06172839506172839,0,0,0.06172839506172839,41.79012345679012,0)"
                     xlink:href="#x"/>
                <use transform="matrix(0.06172839506172839,0,0,0.06172839506172839,57.77777777777777,0)"
                     xlink:href="#v"/>
                <use transform="matrix(0.06172839506172839,0,0,0.06172839506172839,67.59259259259258,0)"
                     xlink:href="#y"/>
                <use transform="matrix(0.06172839506172839,0,0,0.06172839506172839,78.7037037037037,0)"
                     xlink:href="#z"/>
                <use transform="matrix(0.06172839506172839,0,0,0.06172839506172839,89.81481481481481,0)"
                     xlink:href="#A"/>
                <use transform="matrix(0.06172839506172839,0,0,0.06172839506172839,95.98765432098764,0)"
                     xlink:href="#B"/>
                <use transform="matrix(0.06172839506172839,0,0,0.06172839506172839,105.80246913580245,0)"
                     xlink:href="#C"/>
            </g>
            <path fill="#333" d="M81-9v9H4v-9l26-5 81-224h33l83 224 30 5v9h-99v-9l31-5-23-68H73L49-14zm38-203L78-98h82"
                  id="DerivedEvent"/>
            <path fill="#333"
                  d="M75-108c48 3 76-12 76-58s-28-57-76-54v112zm111-58c-1 60-46 78-111 74v78l37 5v9H13v-9l28-5v-208l-31-4v-10c81 1 178-14 176 70"
                  id="E"/>
            <path fill="#333" d="M111-226l-36 4v207c33-1 73 2 101-4l11-49h11l-3 68H10v-9l31-5v-208l-31-4v-10h101v10"
                  id="F"/>
            <path fill="#333" d="M45-37c13 0 21 8 21 21C67-2 57 4 45 5 33 4 23-2 24-16c0-13 8-21 21-21" id="G"/>
            <path fill="#333"
                  d="M45-84c0 64 52 80 104 63 1 25-30 25-55 25-56 0-80-32-80-88 0-76 62-98 131-80v46h-10c-5-15-4-31-23-35-47-10-67 21-67 69"
                  id="H"/>
            <path fill="#333"
                  d="M41-130c7 48 86 23 86 84 0 56-69 57-112 41v-40c20 0 9 29 31 31 35 19 77-26 41-50-27-18-72-13-72-59 0-50 58-52 100-41v36c-19 1-8-25-28-25-21-7-50-1-46 23"
                  id="I"/>
            <path fill="#333" d="M164-154L98 4H85L17-153c-7-3-20 0-17-12h77v8l-26 4L99-38l46-115-26-4v-8h61v8" id="J"/>
            <g id="b">
                <use transform="matrix(0.06172839506172839,0,0,0.06172839506172839,0,0)" xlink:href="#DerivedEvent"/>
                <use transform="matrix(0.06172839506172839,0,0,0.06172839506172839,15.987654320987653,0)"
                     xlink:href="#DerivedEvent"/>
                <use transform="matrix(0.06172839506172839,0,0,0.06172839506172839,31.975308641975307,0)"
                     xlink:href="#E"/>
                <use transform="matrix(0.06172839506172839,0,0,0.06172839506172839,44.32098765432099,0)"
                     xlink:href="#F"/>
                <use transform="matrix(0.06172839506172839,0,0,0.06172839506172839,57.839506172839506,0)"
                     xlink:href="#G"/>
                <use transform="matrix(0.06172839506172839,0,0,0.06172839506172839,63.395061728395056,0)"
                     xlink:href="#H"/>
                <use transform="matrix(0.06172839506172839,0,0,0.06172839506172839,73.20987654320987,0)"
                     xlink:href="#I"/>
                <use transform="matrix(0.06172839506172839,0,0,0.06172839506172839,81.85185185185185,0)"
                     xlink:href="#J"/>
            </g>
            <path fill="#333"
                  d="M178-68c0 79-95 82-154 59v-54h12c1 35 22 52 60 52 50 0 69-58 33-82-39-24-105-21-105-85 0-67 86-66 142-53v49h-12l-6-29c-31-27-121-7-89 42 28 43 119 24 119 101"
                  id="K"/>
            <path fill="#333"
                  d="M141-152c28 39 5 97-54 97-9 0-20-2-27-3L49-35c29 22 130-14 124 52-4 45-38 57-88 61C21 83-8 26 45-2 33-6 22-15 21-31l28-31c-19-9-28-26-28-51-2-51 53-65 100-52l38-20 7 8zM85 64c35 0 61-11 61-42 0-35-57-17-89-21-9 8-16 19-17 34 0 25 19 29 45 29zM52-113c1 26 7 46 35 44 28-1 34-16 35-44 0-26-6-43-34-43s-36 17-36 43"
                  id="L"/>
            <path fill="#333"
                  d="M161-154L85 37C75 66 49 86 8 75V39c18-2 6 24 29 21 30-4 38-32 47-58L21-153c-7-3-20 0-17-12h77v8l-26 4 45 116 43-116-26-4v-8h62v8"
                  id="M"/>
            <g id="c">
                <use transform="matrix(0.06172839506172839,0,0,0.06172839506172839,0,0)" xlink:href="#K"/>
                <use transform="matrix(0.06172839506172839,0,0,0.06172839506172839,12.345679012345679,0)"
                     xlink:href="#w"/>
                <use transform="matrix(0.06172839506172839,0,0,0.06172839506172839,18.51851851851852,0)"
                     xlink:href="#C"/>
                <use transform="matrix(0.06172839506172839,0,0,0.06172839506172839,25.864197530864196,0)"
                     xlink:href="#v"/>
                <use transform="matrix(0.06172839506172839,0,0,0.06172839506172839,35.67901234567901,0)"
                     xlink:href="#w"/>
                <use transform="matrix(0.06172839506172839,0,0,0.06172839506172839,41.851851851851855,0)"
                     xlink:href="#B"/>
                <use transform="matrix(0.06172839506172839,0,0,0.06172839506172839,51.66666666666667,0)"
                     xlink:href="#L"/>
                <use transform="matrix(0.06172839506172839,0,0,0.06172839506172839,62.777777777777786,0)"
                     xlink:href="#M"/>
            </g>
            <path fill="#333"
                  d="M152 0h-7L59-203v189l32 5v9H10v-9l31-5v-208l-31-4v-10h72l76 180 84-180h68v10l-31 4v208l31 5v9h-96v-9l32-5v-189"
                  id="N"/>
            <path fill="#333"
                  d="M60-80l68-73c-7-3-20 0-17-12h58c3 13-13 9-20 12l-47 48 60 93c7 3 21-1 18 12h-68c-3-12 9-9 15-12L82-83 60-60v48c7 3 21-1 18 12H10v-8l21-4v-226l-24-4v-8h53v170"
                  id="O"/>
            <path fill="#333"
                  d="M10-9l31-5v-208l-31-4v-10h177v57h-11l-6-38c-28-4-63-3-95-3v92h63l6-28h11v73h-11l-6-29H75v96l105-3 10-43h12l-3 62H10v-9"
                  id="P"/>
            <g id="d">
                <use transform="matrix(0.06172839506172839,0,0,0.06172839506172839,0,0)" xlink:href="#N"/>
                <use transform="matrix(0.06172839506172839,0,0,0.06172839506172839,19.753086419753085,0)"
                     xlink:href="#v"/>
                <use transform="matrix(0.06172839506172839,0,0,0.06172839506172839,29.5679012345679,0)"
                     xlink:href="#C"/>
                <use transform="matrix(0.06172839506172839,0,0,0.06172839506172839,36.913580246913575,0)"
                     xlink:href="#O"/>
                <use transform="matrix(0.06172839506172839,0,0,0.06172839506172839,48.02469135802468,0)"
                     xlink:href="#B"/>
                <use transform="matrix(0.06172839506172839,0,0,0.06172839506172839,57.8395061728395,0)"
                     xlink:href="#w"/>
                <use transform="matrix(0.06172839506172839,0,0,0.06172839506172839,64.01234567901234,0)"
                     xlink:href="#P"/>
                <use transform="matrix(0.06172839506172839,0,0,0.06172839506172839,77.53086419753086,0)"
                     xlink:href="#J"/>
                <use transform="matrix(0.06172839506172839,0,0,0.06172839506172839,88.64197530864197,0)"
                     xlink:href="#B"/>
                <use transform="matrix(0.06172839506172839,0,0,0.06172839506172839,98.45679012345678,0)"
                     xlink:href="#y"/>
                <use transform="matrix(0.06172839506172839,0,0,0.06172839506172839,109.5679012345679,0)"
                     xlink:href="#w"/>
            </g>
            <path fill="#333"
                  d="M47-200c-23 0-25-39 0-38 13 0 18 7 20 19-1 11-8 19-20 19zM65-12l28 4v8H8v-8l28-4v-141l-24-4v-8h53v153"
                  id="Q"/>
            <g id="e">
                <use transform="matrix(0.06172839506172839,0,0,0.06172839506172839,0,0)" xlink:href="#K"/>
                <use transform="matrix(0.06172839506172839,0,0,0.06172839506172839,12.345679012345679,0)"
                     xlink:href="#Q"/>
                <use transform="matrix(0.06172839506172839,0,0,0.06172839506172839,18.51851851851852,0)"
                     xlink:href="#L"/>
                <use transform="matrix(0.06172839506172839,0,0,0.06172839506172839,29.62962962962963,0)"
                     xlink:href="#y"/>
                <use transform="matrix(0.06172839506172839,0,0,0.06172839506172839,40.74074074074074,0)"
                     xlink:href="#v"/>
                <use transform="matrix(0.06172839506172839,0,0,0.06172839506172839,50.55555555555556,0)"
                     xlink:href="#A"/>
                <use transform="matrix(0.06172839506172839,0,0,0.06172839506172839,56.7283950617284,0)"
                     xlink:href="#P"/>
                <use transform="matrix(0.06172839506172839,0,0,0.06172839506172839,70.24691358024691,0)"
                     xlink:href="#J"/>
                <use transform="matrix(0.06172839506172839,0,0,0.06172839506172839,81.35802469135803,0)"
                     xlink:href="#B"/>
                <use transform="matrix(0.06172839506172839,0,0,0.06172839506172839,91.17283950617283,0)"
                     xlink:href="#y"/>
                <use transform="matrix(0.06172839506172839,0,0,0.06172839506172839,102.28395061728395,0)"
                     xlink:href="#w"/>
            </g>
            <path fill="#333"
                  d="M90-170c52 0 76 32 76 87 0 54-24 87-77 87-51 0-75-34-75-87 0-54 24-87 76-87zM89-10c39 0 46-35 46-73 0-39-7-73-46-73-39 1-44 34-44 73s6 72 44 73"
                  id="R"/>
            <path fill="#333"
                  d="M103-236c-39-15-35 32-34 71h44v15H69v136l35 6v8H15v-8l25-6v-136H11v-9l29-7c-6-59 23-100 80-84v36c-15 2-12-14-17-22"
                  id="S"/>
            <g id="f">
                <use transform="matrix(0.06172839506172839,0,0,0.06172839506172839,0,0)" xlink:href="#E"/>
                <use transform="matrix(0.06172839506172839,0,0,0.06172839506172839,12.345679012345679,0)"
                     xlink:href="#R"/>
                <use transform="matrix(0.06172839506172839,0,0,0.06172839506172839,23.45679012345679,0)"
                     xlink:href="#C"/>
                <use transform="matrix(0.06172839506172839,0,0,0.06172839506172839,30.80246913580247,0)"
                     xlink:href="#w"/>
                <use transform="matrix(0.06172839506172839,0,0,0.06172839506172839,36.97530864197531,0)"
                     xlink:href="#S"/>
                <use transform="matrix(0.06172839506172839,0,0,0.06172839506172839,44.32098765432099,0)"
                     xlink:href="#R"/>
                <use transform="matrix(0.06172839506172839,0,0,0.06172839506172839,55.4320987654321,0)"
                     xlink:href="#A"/>
                <use transform="matrix(0.06172839506172839,0,0,0.06172839506172839,61.604938271604944,0)"
                     xlink:href="#Q"/>
                <use transform="matrix(0.06172839506172839,0,0,0.06172839506172839,67.77777777777779,0)"
                     xlink:href="#R"/>
            </g>
            <path fill="#333"
                  d="M156-12c7 3 23-1 20 12h-75v-8l22-4-38-58-45 58 23 4v8H3v-8l19-3 55-71-48-71c-7-3-23 1-20-12h75v8l-22 4 32 48 37-48-23-4v-8h59v8l-19 3-46 60"
                  id="T"/>
            <path fill="#333"
                  d="M124-13C89 8 26 15 26-45v-108c-8-3-24 2-21-12h50v118c-3 37 42 32 69 25v-131l-25-4v-8h54v153c8 3 24-2 21 12h-48"
                  id="U"/>
            <g id="g">
                <use transform="matrix(0.06172839506172839,0,0,0.06172839506172839,0,0)" xlink:href="#P"/>
                <use transform="matrix(0.06172839506172839,0,0,0.06172839506172839,13.518518518518517,0)"
                     xlink:href="#T"/>
                <use transform="matrix(0.06172839506172839,0,0,0.06172839506172839,24.629629629629626,0)"
                     xlink:href="#B"/>
                <use transform="matrix(0.06172839506172839,0,0,0.06172839506172839,34.44444444444444,0)"
                     xlink:href="#H"/>
                <use transform="matrix(0.06172839506172839,0,0,0.06172839506172839,44.25925925925926,0)"
                     xlink:href="#U"/>
                <use transform="matrix(0.06172839506172839,0,0,0.06172839506172839,55.37037037037037,0)"
                     xlink:href="#w"/>
                <use transform="matrix(0.06172839506172839,0,0,0.06172839506172839,61.54320987654321,0)"
                     xlink:href="#Q"/>
                <use transform="matrix(0.06172839506172839,0,0,0.06172839506172839,67.71604938271605,0)"
                     xlink:href="#R"/>
                <use transform="matrix(0.06172839506172839,0,0,0.06172839506172839,78.82716049382717,0)"
                     xlink:href="#y"/>
                <use transform="matrix(0.06172839506172839,0,0,0.06172839506172839,89.93827160493828,0)"
                     xlink:href="#x"/>
                <use transform="matrix(0.06172839506172839,0,0,0.06172839506172839,105.92592592592594,0)"
                     xlink:href="#v"/>
                <use transform="matrix(0.06172839506172839,0,0,0.06172839506172839,115.74074074074075,0)"
                     xlink:href="#y"/>
                <use transform="matrix(0.06172839506172839,0,0,0.06172839506172839,126.85185185185188,0)"
                     xlink:href="#z"/>
                <use transform="matrix(0.06172839506172839,0,0,0.06172839506172839,137.96296296296296,0)"
                     xlink:href="#A"/>
                <use transform="matrix(0.06172839506172839,0,0,0.06172839506172839,144.1358024691358,0)"
                     xlink:href="#B"/>
                <use transform="matrix(0.06172839506172839,0,0,0.06172839506172839,153.9506172839506,0)"
                     xlink:href="#C"/>
            </g>
            <path fill="#333"
                  d="M130-224c-62 0-78 43-78 106 0 64 16 108 78 108s78-45 78-108-16-106-78-106zm0 228C53 4 15-39 15-118c-1-80 37-120 115-120s115 42 115 120C245-39 207 4 130 4"
                  id="V"/>
            <g id="h">
                <use transform="matrix(0.06172839506172839,0,0,0.06172839506172839,0,0)" xlink:href="#V"/>
                <use transform="matrix(0.06172839506172839,0,0,0.06172839506172839,15.987654320987653,0)"
                     xlink:href="#C"/>
                <use transform="matrix(0.06172839506172839,0,0,0.06172839506172839,23.333333333333332,0)"
                     xlink:href="#z"/>
                <use transform="matrix(0.06172839506172839,0,0,0.06172839506172839,34.44444444444444,0)"
                     xlink:href="#B"/>
                <use transform="matrix(0.06172839506172839,0,0,0.06172839506172839,44.25925925925926,0)"
                     xlink:href="#C"/>
                <use transform="matrix(0.06172839506172839,0,0,0.06172839506172839,51.60493827160494,0)"
                     xlink:href="#P"/>
                <use transform="matrix(0.06172839506172839,0,0,0.06172839506172839,65.12345679012346,0)"
                     xlink:href="#J"/>
                <use transform="matrix(0.06172839506172839,0,0,0.06172839506172839,76.23456790123457,0)"
                     xlink:href="#B"/>
                <use transform="matrix(0.06172839506172839,0,0,0.06172839506172839,86.04938271604938,0)"
                     xlink:href="#y"/>
                <use transform="matrix(0.06172839506172839,0,0,0.06172839506172839,97.1604938271605,0)"
                     xlink:href="#w"/>
            </g>
            <path fill="#333"
                  d="M199-173c-1 36-21 56-49 65l64 94 26 5v9h-57l-66-103H75v89l35 5v9H13v-9l28-5v-208l-31-4v-10c80 4 190-20 189 63zM75-119c50 2 89-1 89-51 0-49-39-52-89-50v101"
                  id="W"/>
            <path fill="#333"
                  d="M13-82c-2-68 46-101 114-84 8-3 15-8 28-7V64l18 4v9h-70v-9l23-4c1-25-2-53 2-75-11 8-27 15-47 15-49-1-66-35-68-86zm113-70c-53-13-86 12-81 70-6 54 34 80 81 61v-131"
                  id="X"/>
            <g id="i">
                <use transform="matrix(0.06172839506172839,0,0,0.06172839506172839,0,0)" xlink:href="#W"/>
                <use transform="matrix(0.06172839506172839,0,0,0.06172839506172839,14.814814814814813,0)"
                     xlink:href="#B"/>
                <use transform="matrix(0.06172839506172839,0,0,0.06172839506172839,24.629629629629626,0)"
                     xlink:href="#X"/>
                <use transform="matrix(0.06172839506172839,0,0,0.06172839506172839,35.74074074074073,0)"
                     xlink:href="#U"/>
                <use transform="matrix(0.06172839506172839,0,0,0.06172839506172839,46.85185185185185,0)"
                     xlink:href="#B"/>
                <use transform="matrix(0.06172839506172839,0,0,0.06172839506172839,56.666666666666664,0)"
                     xlink:href="#I"/>
                <use transform="matrix(0.06172839506172839,0,0,0.06172839506172839,65.30864197530863,0)"
                     xlink:href="#w"/>
            </g>
            <path fill="#333"
                  d="M166-85c3 67-44 102-111 85l1 64 29 4v9H6v-9l21-4v-217c-7-3-22 1-19-12h46l1 9c11-8 26-14 45-14 47 2 64 36 66 85zM56-13c53 14 83-14 78-72 7-53-33-79-78-60v132"
                  id="Y"/>
            <g id="j">
                <use transform="matrix(0.06172839506172839,0,0,0.06172839506172839,0,0)" xlink:href="#W"/>
                <use transform="matrix(0.06172839506172839,0,0,0.06172839506172839,14.814814814814813,0)"
                     xlink:href="#B"/>
                <use transform="matrix(0.06172839506172839,0,0,0.06172839506172839,24.629629629629626,0)"
                     xlink:href="#I"/>
                <use transform="matrix(0.06172839506172839,0,0,0.06172839506172839,33.2716049382716,0)"
                     xlink:href="#Y"/>
                <use transform="matrix(0.06172839506172839,0,0,0.06172839506172839,44.38271604938271,0)"
                     xlink:href="#R"/>
                <use transform="matrix(0.06172839506172839,0,0,0.06172839506172839,55.49382716049382,0)"
                     xlink:href="#y"/>
                <use transform="matrix(0.06172839506172839,0,0,0.06172839506172839,66.60493827160494,0)"
                     xlink:href="#I"/>
                <use transform="matrix(0.06172839506172839,0,0,0.06172839506172839,75.24691358024691,0)"
                     xlink:href="#B"/>
            </g>
            <path fill="#333"
                  d="M75-106v92l39 5v9H13v-9l28-5v-208l-31-4v-10h177v57h-11l-6-38c-28-4-63-3-95-3v98h69l5-28h11v73h-11l-5-29H75"
                  id="Z"/>
            <g id="k">
                <use transform="matrix(0.06172839506172839,0,0,0.06172839506172839,0,0)" xlink:href="#Z"/>
                <use transform="matrix(0.06172839506172839,0,0,0.06172839506172839,12.345679012345679,0)"
                     xlink:href="#Q"/>
                <use transform="matrix(0.06172839506172839,0,0,0.06172839506172839,18.51851851851852,0)"
                     xlink:href="#A"/>
                <use transform="matrix(0.06172839506172839,0,0,0.06172839506172839,24.691358024691358,0)"
                     xlink:href="#A"/>
                <use transform="matrix(0.06172839506172839,0,0,0.06172839506172839,30.864197530864196,0)"
                     xlink:href="#P"/>
                <use transform="matrix(0.06172839506172839,0,0,0.06172839506172839,44.382716049382715,0)"
                     xlink:href="#J"/>
                <use transform="matrix(0.06172839506172839,0,0,0.06172839506172839,55.49382716049382,0)"
                     xlink:href="#B"/>
                <use transform="matrix(0.06172839506172839,0,0,0.06172839506172839,65.30864197530863,0)"
                     xlink:href="#y"/>
                <use transform="matrix(0.06172839506172839,0,0,0.06172839506172839,76.41975308641975,0)"
                     xlink:href="#w"/>
            </g>
            <path fill="#333"
                  d="M126-118c4-37-42-32-68-25v131l24 4v8H8C5-13 21-9 28-12v-141c-7-3-23 1-20-12h48l1 13c22-15 77-30 92 2 32-22 104-36 104 29v109c8 3 24-2 21 12h-75v-8l25-4v-106c3-39-45-31-72-24 7 37 1 88 3 130l25 4v8h-78v-8l24-4v-106"
                  id="aa"/>
            <g id="l">
                <use transform="matrix(0.06172839506172839,0,0,0.06172839506172839,0,0)" xlink:href="#E"/>
                <use transform="matrix(0.06172839506172839,0,0,0.06172839506172839,12.345679012345679,0)"
                     xlink:href="#B"/>
                <use transform="matrix(0.06172839506172839,0,0,0.06172839506172839,22.160493827160494,0)"
                     xlink:href="#C"/>
                <use transform="matrix(0.06172839506172839,0,0,0.06172839506172839,29.50617283950617,0)"
                     xlink:href="#S"/>
                <use transform="matrix(0.06172839506172839,0,0,0.06172839506172839,36.85185185185185,0)"
                     xlink:href="#R"/>
                <use transform="matrix(0.06172839506172839,0,0,0.06172839506172839,47.96296296296296,0)"
                     xlink:href="#C"/>
                <use transform="matrix(0.06172839506172839,0,0,0.06172839506172839,55.30864197530864,0)"
                     xlink:href="#aa"/>
                <use transform="matrix(0.06172839506172839,0,0,0.06172839506172839,72.59259259259258,0)"
                     xlink:href="#v"/>
                <use transform="matrix(0.06172839506172839,0,0,0.06172839506172839,82.40740740740739,0)"
                     xlink:href="#y"/>
                <use transform="matrix(0.06172839506172839,0,0,0.06172839506172839,93.5185185185185,0)"
                     xlink:href="#H"/>
                <use transform="matrix(0.06172839506172839,0,0,0.06172839506172839,103.33333333333331,0)"
                     xlink:href="#B"/>
            </g>
            <path fill="#333"
                  d="M111-239c38 0 63 13 63 49-1 38-32 47-59 59l75 67c8-19 16-41 18-64l-25-5v-9h80v9l-24 5c-8 28-20 56-35 78l41 36 29 5v9h-61l-30-27C145 17 14 21 14-63c0-42 29-56 58-68-41-28-36-108 39-108zM48-65C44 2 142-2 171-38l-88-81c-20 9-33 25-35 54zm63-160c-53 0-37 70-8 82 23-7 40-18 40-49 0-22-11-33-32-33"
                  id="ab"/>
            <use transform="matrix(0.06172839506172839,0,0,0.06172839506172839,0,0)" xlink:href="#ab" id="m"/>
            <g id="n">
                <use transform="matrix(0.06172839506172839,0,0,0.06172839506172839,0,0)" xlink:href="#W"/>
                <use transform="matrix(0.06172839506172839,0,0,0.06172839506172839,14.814814814814813,0)"
                     xlink:href="#Q"/>
                <use transform="matrix(0.06172839506172839,0,0,0.06172839506172839,20.98765432098765,0)"
                     xlink:href="#I"/>
                <use transform="matrix(0.06172839506172839,0,0,0.06172839506172839,29.629629629629626,0)"
                     xlink:href="#O"/>
            </g>
            <g id="o">
                <use transform="matrix(0.06172839506172839,0,0,0.06172839506172839,0,0)" xlink:href="#N"/>
                <use transform="matrix(0.06172839506172839,0,0,0.06172839506172839,19.753086419753085,0)"
                     xlink:href="#B"/>
                <use transform="matrix(0.06172839506172839,0,0,0.06172839506172839,29.5679012345679,0)"
                     xlink:href="#w"/>
                <use transform="matrix(0.06172839506172839,0,0,0.06172839506172839,35.74074074074074,0)"
                     xlink:href="#C"/>
                <use transform="matrix(0.06172839506172839,0,0,0.06172839506172839,43.08641975308642,0)"
                     xlink:href="#Q"/>
                <use transform="matrix(0.06172839506172839,0,0,0.06172839506172839,49.25925925925926,0)"
                     xlink:href="#H"/>
                <use transform="matrix(0.06172839506172839,0,0,0.06172839506172839,59.074074074074076,0)"
                     xlink:href="#I"/>
            </g>
            <path fill="#333"
                  d="M126-119c3-38-42-31-69-25v132l23 4v8H7v-8l21-4v-226l-24-4v-8h53l-1 98c31-22 99-31 99 31v109c7 3 23-1 20 12h-71v-8l22-4v-107"
                  id="ac"/>
            <path fill="#333"
                  d="M53-14c58 12 82-15 82-73 0-52-35-77-82-58v131zM89 4C64 4 42-2 24-9v-229l-24-4v-8h53l-1 94c48-33 114-4 114 69 0 57-23 91-77 91"
                  id="ad"/>
            <g id="p">
                <use transform="matrix(0.06172839506172839,0,0,0.06172839506172839,0,0)" xlink:href="#u"/>
                <use transform="matrix(0.06172839506172839,0,0,0.06172839506172839,15.987654320987653,0)"
                     xlink:href="#v"/>
                <use transform="matrix(0.06172839506172839,0,0,0.06172839506172839,25.80246913580247,0)"
                     xlink:href="#I"/>
                <use transform="matrix(0.06172839506172839,0,0,0.06172839506172839,34.44444444444444,0)"
                     xlink:href="#ac"/>
                <use transform="matrix(0.06172839506172839,0,0,0.06172839506172839,45.55555555555556,0)"
                     xlink:href="#ad"/>
                <use transform="matrix(0.06172839506172839,0,0,0.06172839506172839,56.66666666666667,0)"
                     xlink:href="#R"/>
                <use transform="matrix(0.06172839506172839,0,0,0.06172839506172839,67.77777777777779,0)"
                     xlink:href="#v"/>
                <use transform="matrix(0.06172839506172839,0,0,0.06172839506172839,77.5925925925926,0)"
                     xlink:href="#C"/>
                <use transform="matrix(0.06172839506172839,0,0,0.06172839506172839,84.93827160493828,0)"
                     xlink:href="#z"/>
            </g>
            <g id="q">
                <use transform="matrix(0.06172839506172839,0,0,0.06172839506172839,0,0)" xlink:href="#u"/>
                <use transform="matrix(0.06172839506172839,0,0,0.06172839506172839,15.987654320987653,0)"
                     xlink:href="#v"/>
                <use transform="matrix(0.06172839506172839,0,0,0.06172839506172839,25.80246913580247,0)"
                     xlink:href="#w"/>
                <use transform="matrix(0.06172839506172839,0,0,0.06172839506172839,31.975308641975307,0)"
                     xlink:href="#v"/>
            </g>
            <path fill="#333" d="M256-236v10l-26 4L135 5h-9L31-222l-27-4v-10h95v10l-31 4 71 174 71-174-31-4v-10h77"
                  id="ae"/>
            <g id="r">
                <use transform="matrix(0.06172839506172839,0,0,0.06172839506172839,0,0)" xlink:href="#ae"/>
                <use transform="matrix(0.06172839506172839,0,0,0.06172839506172839,13.518518518518517,0)"
                     xlink:href="#B"/>
                <use transform="matrix(0.06172839506172839,0,0,0.06172839506172839,23.333333333333332,0)"
                     xlink:href="#y"/>
                <use transform="matrix(0.06172839506172839,0,0,0.06172839506172839,34.44444444444444,0)"
                     xlink:href="#z"/>
                <use transform="matrix(0.06172839506172839,0,0,0.06172839506172839,45.55555555555556,0)"
                     xlink:href="#R"/>
                <use transform="matrix(0.06172839506172839,0,0,0.06172839506172839,56.66666666666667,0)"
                     xlink:href="#C"/>
            </g>
            <path fill="#333" d="M77-14l30 5v9H13v-9l30-5v-208l-30-4v-10h94v10l-30 4v208" id="af"/>
            <g id="s">
                <use transform="matrix(0.06172839506172839,0,0,0.06172839506172839,0,0)" xlink:href="#af"/>
                <use transform="matrix(0.06172839506172839,0,0,0.06172839506172839,7.345679012345679,0)"
                     xlink:href="#y"/>
                <use transform="matrix(0.06172839506172839,0,0,0.06172839506172839,18.45679012345679,0)"
                     xlink:href="#w"/>
                <use transform="matrix(0.06172839506172839,0,0,0.06172839506172839,24.62962962962963,0)"
                     xlink:href="#B"/>
                <use transform="matrix(0.06172839506172839,0,0,0.06172839506172839,34.44444444444444,0)"
                     xlink:href="#C"/>
                <use transform="matrix(0.06172839506172839,0,0,0.06172839506172839,41.79012345679012,0)"
                     xlink:href="#v"/>
                <use transform="matrix(0.06172839506172839,0,0,0.06172839506172839,51.60493827160494,0)"
                     xlink:href="#H"/>
                <use transform="matrix(0.06172839506172839,0,0,0.06172839506172839,61.41975308641975,0)"
                     xlink:href="#w"/>
                <use transform="matrix(0.06172839506172839,0,0,0.06172839506172839,67.5925925925926,0)"
                     xlink:href="#Q"/>
                <use transform="matrix(0.06172839506172839,0,0,0.06172839506172839,73.76543209876543,0)"
                     xlink:href="#J"/>
                <use transform="matrix(0.06172839506172839,0,0,0.06172839506172839,84.87654320987654,0)"
                     xlink:href="#B"/>
            </g>
            <path fill="#333"
                  d="M75-131c50 2 93 3 93-48 0-46-48-41-93-41v89zm0 115c55 4 111 6 111-51 0-53-58-48-111-48v99zm148-52C223 24 102-3 10 0v-9l31-5v-208l-31-4v-10c77 6 193-24 194 56 0 33-20 48-48 54 36 5 67 20 67 58"
                  id="ag"/>
            <g id="t">
                <use transform="matrix(0.06172839506172839,0,0,0.06172839506172839,0,0)" xlink:href="#ag"/>
                <use transform="matrix(0.06172839506172839,0,0,0.06172839506172839,14.814814814814813,0)"
                     xlink:href="#C"/>
                <use transform="matrix(0.06172839506172839,0,0,0.06172839506172839,22.160493827160494,0)"
                     xlink:href="#R"/>
                <use transform="matrix(0.06172839506172839,0,0,0.06172839506172839,33.27160493827161,0)"
                     xlink:href="#O"/>
                <use transform="matrix(0.06172839506172839,0,0,0.06172839506172839,44.38271604938272,0)"
                     xlink:href="#B"/>
                <use transform="matrix(0.06172839506172839,0,0,0.06172839506172839,54.19753086419754,0)"
                     xlink:href="#C"/>
            </g>
        </defs>
    </g>
</svg>